<svg width="647" height="624" data-name="Layer 1" version="1.1" viewBox="0 0 647 624" xmlns="http://www.w3.org/2000/svg">
 <defs>
  <style>.cls-1{fill:#fff;}</style>
 </defs>
 <g>
  <g stroke="#000" stroke-linecap="round" stroke-linejoin="round">
   <path d="m124 7.5a93.4 93.4 0 0 0-93.4 93.4 93.4 93.4 0 0 0 28.8 67.5 316 290 0 0 0-51.6 159 316 290 0 0 0 316 290 316 290 0 0 0 316-290 316 290 0 0 0-51.6-159 93.4 93.4 0 0 0 28.8-67.5 93.4 93.4 0 0 0-93.4-93.4 93.4 93.4 0 0 0-82.9 50.4 316 290 0 0 0-117-20.6 316 290 0 0 0-117 20.6 93.4 93.4 0 0 0-82.9-50.4z" fill="#7e5e35" stroke-width="15"/>
   <g>
    <g stroke-width="10">
     <ellipse cx="324" cy="454" rx="112" ry="102" fill="#b6a086"/>
     <ellipse cx="324" cy="413" rx="31.3" ry="22.9" fill="#604729"/>
     <path transform="scale(-1,1)" d="m-111 382a39 21.5 0 0 1 39 21.5 39 21.5 0 0 1-39 21.5 39 21.5 0 0 1-39-21.5 39 21.5 0 0 1 39-21.5zm-425 0a39 21.5 0 0 1 39 21.5 39 21.5 0 0 1-39 21.5 39 21.5 0 0 1-39-21.5 39 21.5 0 0 1 39-21.5z" fill="#c873a4"/>
     <path d="m120 38.6c-23.3 1.53-43 15.8-51.7 37.5-8.71 21.7-5.1 47.4 9.49 67.6 0 0 33.2-28.9 50.4-41.4 17.2-12.5 53-33.5 53-33.5-14.6-20.1-37.9-31.6-61.2-30.1zm407 0c-23.3-1.53-46.6 9.94-61.2 30.1 0 0 35.8 21 53 33.5 17.2 12.5 50.4 41.4 50.4 41.4 14.6-20.1 18.2-45.9 9.49-67.6-8.71-21.7-28.4-36-51.7-37.5z" fill="#cd8898"/>
     <path d="m383 462a59 59 0 0 1-29.5 51.1 59 59 0 0 1-59 0 59 59 0 0 1-29.5-51.1h59z" fill="#cd5963"/>
    </g>
    <circle transform="scale(-1,1)" cx="-465" cy="306" r="47" fill="#fff" stroke-width="15"/>
    <circle cx="183" cy="306" r="47" fill="#fff" stroke-width="15"/>
   </g>
  </g>
  <circle transform="scale(-1,1)" cx="-465" cy="306" r="32"/>
  <circle transform="scale(-1,1)" cx="-183" cy="306" r="32"/>
  <circle transform="scale(-1,1)" cx="-457" cy="291" r="6.56" fill="#fff"/>
  <circle cx="174" cy="291" r="6.56" fill="#fff"/>
  <path d="m197 193c-13.2-0.148-27.5 1.03-38.1 4.59-21.3 7.11-43 27.4-43 27.4l125-0.4s0.241-24.7-12.3-28.2c-6.26-1.75-18.4-3.23-31.6-3.38zm253 0c-13.2 0.148-25.3 1.62-31.6 3.38-12.5 3.51-12.3 28.2-12.3 28.2l125 0.4s-21.7-20.3-43-27.4c-10.6-3.56-24.9-4.74-38.1-4.59z" fill="#604729" stroke="#000" stroke-linecap="round" stroke-linejoin="round" stroke-width="10"/>
 </g>
</svg>
